<svg xmlns="http://www.w3.org/2000/svg" width="72" viewBox="0 0 54 33" height="44" version="1.0"><path fill="#FFF" d="M-5.4-3.3h64.8v39.6H-5.4z"/><path fill="#FFF" d="M-5.4-3.3h64.8v39.6H-5.4z"/><path fill="#4CC8EF" d="M11.602 20.273 9.434 13.36a.472.472 0 0 1 .441-.625h4.168c.312 0 .539.313.437.625l-2.175 6.914a.37.37 0 0 1-.703 0"/><path fill="#4CC8EF" d="m6.516 20.273-2.18-6.914a.472.472 0 0 1 .441-.625h4.168c.313 0 .54.313.438.625l-2.176 6.914c-.102.34-.578.34-.691 0"/><path d="M23.785 12.71h-4.23a.64.64 0 0 0-.63.65v6.718c0 .25.177.469.43.485a.458.458 0 0 0 .477-.47v-2.82h1.95c.202 0 .39-.156.417-.367a.406.406 0 0 0-.39-.453h-1.965v-2.926h3.93c.199 0 .386-.156.413-.363a.408.408 0 0 0-.402-.453M29.563 19.742h-3.336v-6.55c0-.25-.176-.47-.43-.485a.458.458 0 0 0-.477.469v6.617c0 .418.328.77.742.77h3.473c.203 0 .39-.157.418-.368a.406.406 0 0 0-.39-.453M37.316 16.637c0 .582-.14 1.129-.402 1.61-.266.48-.644.858-1.11 1.132-.464.273-.992.402-1.574.402a3.309 3.309 0 0 1-1.585-.402 2.934 2.934 0 0 1-1.106-1.133 3.301 3.301 0 0 1-.402-1.61c0-.585.136-1.132.402-1.613.262-.48.64-.859 1.106-1.132.468-.274 1.007-.403 1.585-.403.583 0 1.11.145 1.575.403.465.273.843.652 1.11 1.132.26.48.401 1.012.401 1.614m-1.046-3.473a4.062 4.062 0 0 0-2.024-.52c-.746 0-1.437.168-2.039.52a3.855 3.855 0 0 0-1.437 1.43c-.34.597-.516 1.289-.516 2.043 0 .754.176 1.441.516 2.039.34.597.82 1.078 1.437 1.43.602.351 1.293.519 2.04.519.741 0 1.433-.168 2.023-.52a3.637 3.637 0 0 0 1.425-1.43c.34-.609.516-1.3.516-2.038 0-.754-.176-1.446-.516-2.043-.34-.61-.82-1.09-1.425-1.43M49.578 12.89a.403.403 0 0 0-.344-.18.398.398 0 0 0-.386.286l-2.04 6.215c0 .012-.015.012-.015.012-.012 0-.012 0-.012-.012l-2.011-6.113a.59.59 0 0 0-.543-.403.574.574 0 0 0-.543.403l-2.063 6.086c0 .011-.012.011-.012.011-.015 0-.015 0-.015-.011l-1.989-6.137a.475.475 0 0 0-.464-.336.396.396 0 0 0-.34.18.436.436 0 0 0-.051.39l2.23 6.836a.633.633 0 0 0 .59.445.642.642 0 0 0 .594-.445l2-5.976c0-.016.012-.016.023-.016 0 0 .016 0 .028.016l1.988 5.976a.642.642 0 0 0 .606.445.64.64 0 0 0 .601-.445l2.23-6.836a.485.485 0 0 0-.062-.39"/><path fill="#111" d="m14.156 20.273-2.18-6.914a.472.472 0 0 1 .442-.625h4.168c.312 0 .539.313.437.625l-2.175 6.903c-.102.351-.594.351-.692.011"/><path fill="#111" d="m9.059 20.273-2.18-6.914a.472.472 0 0 1 .441-.625h4.168c.313 0 .54.313.438.625l-2.164 6.914a.37.37 0 0 1-.703 0"/></svg>