<svg xmlns="http://www.w3.org/2000/svg" width="72" viewBox="0 0 54 33" height="44" version="1.0"><defs><clipPath id="a"><path d="M3.3 10H21v12H3.3zm0 0"/></clipPath><clipPath id="b"><path d="M3.3 15H21v6H3.3zm0 0"/></clipPath><clipPath id="c"><path d="M3.3 12H17v8H3.3zm0 0"/></clipPath><clipPath id="d"><path d="M30 17h5v5.727h-5zm0 0"/></clipPath><clipPath id="e"><path d="M46 11h4.55v5H46zm0 0"/></clipPath></defs><path fill="#FFF" d="M-5.4-3.3h64.8v39.6H-5.4z"/><path fill="#FFF" d="M-5.4-3.3h64.8v39.6H-5.4z"/><g clip-path="url(#a)"><path fill="#28316B" d="M12.445 10.395c.059.007.117.02.18.023 1.04.031 2.059.2 3.055.496.957.285 1.855.688 2.672 1.258.636.445 1.191.973 1.609 1.625.328.512.543 1.062.61 1.66.042.398.038.8-.005 1.2-.156 1.366-.843 2.44-1.898 3.308-.742.613-1.598 1.043-2.512 1.355-.699.239-1.414.399-2.148.496-.762.102-1.531.145-2.301.125-1.133-.03-2.254-.18-3.344-.507-.925-.278-1.8-.676-2.582-1.247-.726-.53-1.324-1.171-1.73-1.972a4.402 4.402 0 0 1-.473-1.625c-.004-.07-.027-.137-.043-.207v-.711c.012-.027.024-.055.031-.082.02-.125.032-.25.055-.375.11-.602.36-1.145.719-1.64.437-.606.988-1.095 1.613-1.505 1.348-.886 2.852-1.351 4.445-1.562.395-.051.79-.086 1.188-.094.035 0 .074-.012.11-.02h.75zm7.813 5.203c-1.168.265-2.29.593-3.387 1.039.152.312.16.613-.07.875-.227.254-.524.34-.863.3-.008.036-.012.067-.016.094a.7.7 0 0 1-.2.426c-.218.223-.48.344-.8.328h-.11c-.07.238-.23.395-.437.516-.215.12-.441.133-.68.078-.191.266-.465.324-.765.32-.239 0-.457-.082-.672-.18a1.442 1.442 0 0 1-.113-.05c-.254.226-.543.332-.883.265-.34-.062-.57-.265-.719-.558-.496.09-.852-.09-1.098-.492-.574.043-.933-.223-1.11-.75-.32.035-.585-.051-.784-.293-.203-.246-.223-.528-.125-.825-.074-.046-.14-.09-.207-.128a6.45 6.45 0 0 0-1.04-.446c-.644-.226-1.312-.383-1.98-.535-.094-.02-.187-.039-.289-.062-.004.027-.012.046-.012.062-.027.223-.015.445.012.668a3.54 3.54 0 0 0 .563 1.512c.347.547.8.996 1.32 1.383.652.488 1.371.851 2.14 1.136 1.29.473 2.63.684 4 .703.883.012 1.755-.066 2.622-.238a10.187 10.187 0 0 0 2.824-.98c.71-.38 1.355-.844 1.883-1.45.543-.617.902-1.312.988-2.132.023-.188.02-.38.008-.586zm-16.305-.426c.164.043.313.09.469.125.625.14 1.246.3 1.851.512.387.136.766.285 1.122.488.074.043.144.09.222.137a.856.856 0 0 1 .625-.227c.242.008.438.125.602.297a.959.959 0 0 1 .754-.145.86.86 0 0 1 .613.43.975.975 0 0 1 .875.133c.277.191.328.488.328.797.688 0 1.211.64.922 1.355.11.082.348.168.516.188.14.015.277.004.41-.047.07-.024.133-.059.16-.137-.02-.027-.043-.05-.063-.078l-.59-.633a.917.917 0 0 1-.074-.097c-.02-.036-.027-.079.012-.098.027-.02.074-.027.102-.016a.318.318 0 0 1 .12.082c.235.211.466.426.7.637.035.031.07.07.117.086.184.059.367.039.531-.07.2-.137.266-.325.067-.536l-.063-.066c-.222-.246-.449-.492-.672-.738-.023-.024-.05-.051-.058-.082-.012-.032-.016-.074 0-.102.023-.043.074-.035.113-.015a.383.383 0 0 1 .086.05c.07.059.137.118.203.176.227.211.45.422.672.637a.453.453 0 0 0 .223.125c.246.062.578-.074.703-.293a.367.367 0 0 0 .004-.402.813.813 0 0 0-.125-.157l-1.004-.984c-.031-.035-.063-.067-.086-.106-.024-.035-.027-.078.008-.113a.089.089 0 0 1 .113-.008c.047.028.09.059.129.094.383.332.762.664 1.144 1a.498.498 0 0 0 .211.121c.23.055.43-.004.598-.16a.35.35 0 0 0 .117-.289.483.483 0 0 0-.195-.383c-.594-.504-1.184-1.008-1.781-1.508-.45-.375-.903-.746-1.36-1.113a2.778 2.778 0 0 0-.453-.289.807.807 0 0 0-.586-.082 2.04 2.04 0 0 0-.387.152c-.242.117-.453.282-.664.446-.168.12-.332.246-.504.359-.44.293-.906.27-1.378.082a.7.7 0 0 1-.211-.145c-.133-.128-.141-.292-.032-.44l.059-.071.781-.82.063-.083c-.16.04-.29.075-.418.106-.211.05-.418.11-.633.14-.309.051-.617.008-.922-.054a13.627 13.627 0 0 1-2.246-.672c-.074-.027-.129-.023-.191.031-.27.223-.524.461-.75.727-.41.476-.715 1.008-.872 1.617-.011.039-.015.078-.027.129zm16.281.074c-.066-.215-.113-.41-.187-.601-.285-.747-.781-1.34-1.387-1.856-.043-.039-.082-.035-.133-.016-.25.098-.496.2-.75.282-.629.199-1.277.285-1.937.23a4.965 4.965 0 0 1-1.688-.453 4.95 4.95 0 0 0-1.02-.336 3.192 3.192 0 0 0-1.69.082c-.403.129-.743.363-1.044.652-.316.313-.625.637-.933.957-.152.157-.14.208.074.29.008.003.02.011.031.011.188.067.387.067.582.043.196-.023.36-.117.512-.23.215-.156.422-.324.64-.477.169-.12.34-.234.52-.34.18-.105.383-.156.594-.168.262-.011.504.07.715.215.21.14.418.281.61.446.898.742 1.788 1.496 2.687 2.246.062.054.125.14.199.152.074.016.16-.047.242-.078a20.454 20.454 0 0 1 3.246-1.02c.031-.007.063-.02.117-.03zM5.984 12.41c.055.024.079.035.102.043.676.238 1.36.438 2.059.586.316.066.632.086.949.016.172-.04.344-.086.515-.133.23-.059.461-.11.704-.121a.31.31 0 0 0 .183-.067c.527-.41 1.137-.597 1.8-.625.56-.023 1.09.09 1.61.282.203.074.403.168.606.254a4.517 4.517 0 0 0 2.031.328c.594-.04 1.16-.2 1.71-.426.013-.004.024-.016.036-.024-.004-.007-.008-.02-.012-.023l-.082-.059a7.868 7.868 0 0 0-1.285-.734c-1.351-.613-2.785-.91-4.273-.977a12.717 12.717 0 0 0-3.125.247c-1.024.214-1.996.546-2.907 1.058-.203.113-.398.238-.62.375zm2.61 4.953c.054.032.047.075.039.117-.02.141 0 .274.055.403.152.344.55.472.878.289a.129.129 0 0 1 .051-.027c.055-.024.086-.004.09.054.004.02 0 .04 0 .059a.405.405 0 0 0 .156.351.781.781 0 0 0 .332.164c.133.032.254 0 .364-.078.023-.015.046-.039.07-.054.086-.063.129-.047.148.05a.665.665 0 0 0 .867.61.657.657 0 0 0 .45-.813c-.102-.34-.5-.558-.832-.441-.043.012-.086.027-.13.039-.07.016-.1-.012-.093-.082.004-.027.02-.05.024-.074.019-.098.046-.196.054-.293.008-.168-.031-.328-.164-.446a.622.622 0 0 0-.808-.023c-.09.07-.118.062-.137-.047-.004-.008-.004-.016-.008-.023-.055-.368-.371-.48-.652-.461-.23.02-.41.14-.547.32-.02.027-.04.05-.063.082-.086-.363-.238-.527-.5-.547a.534.534 0 0 0-.531.328.5.5 0 0 0 .164.59c.211.16.426.149.723-.047zm0 0"/></g><g clip-path="url(#b)"><path fill="#50B4E9" d="M20.258 15.598a3.65 3.65 0 0 1-.004.586c-.09.816-.45 1.515-.992 2.132-.528.606-1.172 1.07-1.883 1.45-.887.472-1.836.78-2.824.98-.864.172-1.739.25-2.621.238-1.371-.02-2.711-.23-4-.707a8.452 8.452 0 0 1-2.141-1.132c-.52-.391-.973-.84-1.32-1.383a3.591 3.591 0 0 1-.563-1.512 2.731 2.731 0 0 1-.012-.668.723.723 0 0 1 .016-.062c.098.02.191.043.285.062.668.148 1.336.309 1.98.531.36.125.712.262 1.04.45.07.035.133.082.207.125-.098.3-.078.578.125.824.199.242.469.332.785.297.176.527.535.789 1.11.75.245.402.6.582 1.097.488a.999.999 0 0 0 .723.562c.336.063.625-.039.879-.265.039.015.078.031.113.05.215.098.433.176.676.18.296.004.57-.058.765-.32.235.055.461.043.676-.082.207-.117.367-.274.438-.512.039 0 .074-.004.109 0 .32.016.586-.105.8-.328a.71.71 0 0 0 .2-.426.937.937 0 0 1 .015-.093c.34.039.637-.047.864-.301.23-.266.222-.563.07-.88a22.194 22.194 0 0 1 3.387-1.034zm0 0"/></g><g clip-path="url(#c)"><path fill="#FFF" d="M3.953 15.172c.012-.05.016-.09.027-.129.153-.61.461-1.14.868-1.621.226-.266.484-.5.754-.723.062-.054.113-.058.191-.031.73.285 1.477.516 2.242.672.305.062.617.105.926.055.21-.032.422-.094.629-.141.133-.031.262-.066.422-.106-.035.043-.047.063-.063.082-.261.274-.523.547-.781.82-.023.024-.043.044-.059.071-.113.149-.105.313.032.441a.655.655 0 0 0 .21.145c.473.188.938.207 1.38-.082.171-.113.335-.238.5-.363.214-.16.425-.325.664-.446a2.06 2.06 0 0 1 .39-.148.775.775 0 0 1 .582.078c.16.086.317.18.457.293.457.363.91.734 1.36 1.113.597.496 1.187 1.004 1.777 1.508a.498.498 0 0 1 .2.383.361.361 0 0 1-.118.289.627.627 0 0 1-.598.16.558.558 0 0 1-.215-.12c-.378-.337-.761-.669-1.14-1.005a1.515 1.515 0 0 0-.13-.09c-.038-.023-.081-.027-.116.008s-.028.078-.004.113c.023.04.055.07.086.102.332.328.668.656 1 .988a.951.951 0 0 1 .129.153.367.367 0 0 1-.004.402c-.125.223-.457.36-.707.297a.506.506 0 0 1-.223-.125c-.219-.215-.445-.426-.668-.637-.066-.062-.137-.117-.207-.176a.375.375 0 0 0-.082-.054c-.043-.016-.09-.024-.113.02-.016.027-.012.07-.004.1.012.032.039.055.062.083.223.246.45.492.672.738.02.023.04.043.063.066.199.211.133.395-.07.532a.572.572 0 0 1-.532.07c-.043-.012-.082-.05-.117-.082-.23-.215-.46-.426-.695-.64a.509.509 0 0 0-.121-.083.156.156 0 0 0-.102.016c-.039.023-.035.066-.012.102a.917.917 0 0 0 .075.097l.585.633c.024.023.043.05.067.078-.031.078-.094.11-.16.137a.873.873 0 0 1-.414.047c-.164-.024-.403-.106-.512-.188.285-.715-.238-1.355-.922-1.36 0-.304-.05-.6-.332-.792a.962.962 0 0 0-.875-.133.842.842 0 0 0-.613-.43.963.963 0 0 0-.754.141c-.164-.168-.356-.285-.602-.297a.856.856 0 0 0-.62.23c-.079-.046-.15-.093-.227-.136a6.627 6.627 0 0 0-1.118-.488 16.698 16.698 0 0 0-1.855-.512c-.152-.035-.3-.082-.465-.125zm0 0"/></g><path fill="#FFF" d="M20.234 15.246c-.054.012-.086.024-.117.031-1.11.254-2.195.586-3.246 1.02-.082.031-.168.09-.242.078-.074-.012-.137-.098-.2-.152-.898-.75-1.788-1.504-2.687-2.25-.191-.16-.402-.301-.61-.442a1.161 1.161 0 0 0-.714-.215c-.211.012-.414.063-.594.168-.18.102-.351.22-.52.336-.218.157-.425.325-.64.48-.152.11-.316.208-.512.231-.195.024-.394.02-.582-.043l-.03-.011c-.216-.082-.227-.133-.075-.29.308-.32.617-.644.933-.957.301-.289.641-.523 1.043-.652a3.192 3.192 0 0 1 1.692-.082c.355.074.691.188 1.02.336a5.056 5.056 0 0 0 1.687.453 5.009 5.009 0 0 0 1.937-.23c.254-.082.5-.184.75-.282.055-.02.09-.023.133.016.606.516 1.102 1.11 1.387 1.856.074.19.121.386.187.601zm0 0"/><path fill="#50B4E9" d="M5.984 12.41c.223-.137.418-.262.621-.375.907-.512 1.883-.844 2.907-1.058a12.733 12.733 0 0 1 3.129-.247c1.484.067 2.918.364 4.273.977.45.207.879.45 1.281.734.032.02.055.04.082.059.008.004.008.016.012.023-.012.008-.023.02-.035.024-.55.226-1.113.387-1.711.426a4.517 4.517 0 0 1-2.031-.328c-.203-.082-.399-.18-.606-.254-.52-.192-1.05-.305-1.61-.282-.663.028-1.273.215-1.8.625a.31.31 0 0 1-.184.067 3.58 3.58 0 0 0-.703.12c-.171.048-.343.095-.515.134-.317.07-.633.05-.946-.016a16.338 16.338 0 0 1-2.062-.586c-.024-.008-.047-.02-.102-.043zm0 0"/><path fill="#FFF" d="M8.594 17.363c-.297.196-.512.207-.723.047a.5.5 0 0 1-.164-.59c.086-.21.3-.343.531-.324.262.016.414.18.5.543l.063-.082c.136-.18.316-.3.547-.32.28-.02.597.093.652.465.004.003.004.011.008.02.02.108.047.116.137.046a.622.622 0 0 1 .808.023c.133.122.172.278.164.446-.008.097-.035.195-.055.293-.003.027-.019.05-.023.074-.008.07.024.098.094.082.043-.012.086-.027.129-.04.332-.116.73.102.832.442a.657.657 0 0 1-.45.813.663.663 0 0 1-.863-.563c-.004-.015-.004-.031-.004-.047-.02-.097-.062-.113-.148-.05-.024.015-.047.039-.07.054a.432.432 0 0 1-.364.078.781.781 0 0 1-.332-.164.396.396 0 0 1-.156-.351c0-.02.004-.04 0-.055-.004-.058-.035-.082-.09-.058a.129.129 0 0 0-.05.027.615.615 0 0 1-.88-.29c-.054-.128-.074-.26-.054-.402.008-.043.015-.085-.04-.117zm0 0"/><g clip-path="url(#d)"><path fill="#50B4E9" d="M32.262 22.281c-.114-.02-.227-.043-.34-.066-.621-.125-.992-.508-1.184-1.078-.004-.008 0-.016 0-.04h.992a.768.768 0 0 0 .32.282.72.72 0 0 0 .95-.277c.145-.235.164-.493.156-.786-.035.036-.05.055-.066.07-.25.317-.586.438-.98.415-.633-.043-1.04-.399-1.301-.938a1.848 1.848 0 0 1-.149-.558c-.043-.434-.027-.86.121-1.274.024-.062.051-.125.078-.187.211-.446.57-.696 1.063-.77.367-.058.734-.07 1.09.047.664.219 1.008.672 1.07 1.29.012.12.02.245.02.366 0 .61.003 1.223 0 1.836a1.744 1.744 0 0 1-.375 1.075c-.23.3-.54.484-.914.554-.055.008-.11.028-.165.04h-.386zm.898-3.367c-.004-.05-.004-.129-.012-.203a1.327 1.327 0 0 0-.234-.621.577.577 0 0 0-.273-.207c-.399-.149-.793.023-.946.41a1.994 1.994 0 0 0-.101.922c.011.144.039.285.097.418.075.16.18.285.356.34.168.054.34.062.516.027.25-.055.406-.219.496-.445.074-.2.097-.403.101-.64zm0 0"/></g><g clip-path="url(#e)"><path fill="#28316B" d="M50.125 14.023c-.008.055-.016.11-.027.16a1.914 1.914 0 0 1-.496.962c-.18.187-.403.316-.657.382-.453.125-.91.121-1.363-.011a1.444 1.444 0 0 1-.75-.516 1.976 1.976 0 0 1-.398-1.027c-.047-.465.023-.907.257-1.32.293-.52.746-.782 1.34-.829a2.44 2.44 0 0 1 .934.078c.312.098.566.274.762.532.18.238.3.496.363.785l.035.18v.624zm-2.719-.312c.008.191.02.379.086.559.156.445.508.625.985.543.3-.051.48-.25.578-.524.086-.238.101-.484.082-.734a1.3 1.3 0 0 0-.125-.516.734.734 0 0 0-.395-.379c-.48-.191-.96.027-1.129.504-.062.176-.074.36-.082.547zm0 0"/></g><path fill="#28316B" d="M24.14 15.531h-.867c-.003-.027-.011-.054-.011-.086 0-.699 0-1.398.004-2.101 0-.235.05-.465.152-.68.238-.492.645-.762 1.195-.824.223-.027.446-.008.66.062.243.075.446.215.614.414.023-.02.043-.03.058-.05.543-.579 1.414-.52 1.91-.204.344.22.532.54.606.926.027.137.043.274.043.41.004.68.004 1.36.004 2.036 0 .03-.004.058-.008.097h-.871v-.136c0-.66 0-1.32-.004-1.98 0-.102-.012-.204-.04-.298-.065-.234-.233-.367-.476-.402-.433-.063-.761.2-.789.629-.004.05 0 .101 0 .156v2.027h-.875c0-.039-.004-.082-.004-.125 0-.66.004-1.324 0-1.988 0-.101-.011-.203-.039-.297a.512.512 0 0 0-.441-.394c-.418-.07-.727.136-.8.476-.016.082-.02.164-.02.246v2.086zm0 0"/><path fill="#50B4E9" d="M24.219 20.328v.836c0 .113.004.23 0 .344a.459.459 0 0 1-.375.441c-.098.02-.453.02-.574 0a.648.648 0 0 1-.008-.094c0-1.058 0-2.12.004-3.18 0-.163.02-.327.054-.484.117-.492.43-.828.91-1.003a2.455 2.455 0 0 1 1.364-.09c.32.066.582.238.785.492.246.308.375.66.41 1.043a2.71 2.71 0 0 1-.117 1.133c-.063.18-.149.347-.266.504a1.328 1.328 0 0 1-1.129.55 1.84 1.84 0 0 1-.359-.039 1.021 1.021 0 0 1-.629-.402c-.016-.024-.031-.04-.047-.059a.056.056 0 0 1-.023.008zm1.61-1.379v-.101c-.017-.22-.048-.438-.161-.633-.16-.27-.402-.38-.715-.36-.297.016-.5.168-.621.43a.806.806 0 0 0-.047.137c-.062.238-.078.48-.055.726.012.145.04.29.102.422.137.285.363.446.695.45.332.003.547-.165.684-.446a.918.918 0 0 0 .055-.144c.047-.157.066-.32.062-.48zm0 0"/><path fill="#28316B" d="M45.168 12.332V11.41c.004-.375.164-.578.535-.668.133-.031.27-.043.418-.031a.639.639 0 0 1 .008.086c0 1.113.008 2.226 0 3.34-.004.699-.473 1.254-1.184 1.414a2.533 2.533 0 0 1-1.343-.063 1.33 1.33 0 0 1-.817-.71 1.96 1.96 0 0 1-.195-.75 2.83 2.83 0 0 1 .152-1.184 1.55 1.55 0 0 1 .492-.7c.368-.285.786-.363 1.239-.265.25.05.449.191.609.383.023.027.043.05.063.078.007-.004.015-.008.023-.008zm.023 1.363c0-.133-.023-.336-.101-.53-.149-.364-.434-.54-.828-.5a.608.608 0 0 0-.496.296 1.5 1.5 0 0 0-.141.312 1.807 1.807 0 0 0-.031.805c.023.152.066.297.144.43a.63.63 0 0 0 .387.305c.305.082.734.046.945-.41.094-.204.125-.415.121-.708zM32.418 14.57c.008.067-.027.121-.055.176-.18.328-.433.586-.789.719-.683.262-1.347.223-1.976-.172a1.36 1.36 0 0 1-.614-.824c-.132-.504-.14-1.008.028-1.504.215-.64.691-.996 1.367-1.102a2.32 2.32 0 0 1 .867.04c.504.12.86.421 1.078.878.184.375.184.781.184 1.196h-2.64c-.028.078-.005.14.007.207.074.379.34.62.734.656.153.015.305.012.453-.027a.542.542 0 0 0 .31-.196c.03-.035.062-.058.112-.058.301.004.598.004.899.004.012 0 .02.003.035.007zm-.914-1.21a.716.716 0 0 0-.469-.692 1.031 1.031 0 0 0-.45-.05.692.692 0 0 0-.597.39.785.785 0 0 0-.105.351h1.62zm0 0"/><path fill="#50B4E9" d="M36.332 17.02c.29.007.574.046.844.16.23.093.422.242.574.437.348.442.473.945.434 1.492-.024.364-.133.7-.336 1.004a1.48 1.48 0 0 1-.903.645 2.437 2.437 0 0 1-1.398-.055 1.388 1.388 0 0 1-.649-.469 1.974 1.974 0 0 1-.421-1.074c-.043-.512.054-.992.347-1.43.27-.398.649-.609 1.125-.675.125-.02.254-.024.383-.035zM35.457 19c0 .125.02.324.094.516.125.328.36.515.722.53.38.017.645-.132.801-.468.02-.047.04-.098.055-.148.062-.23.078-.465.055-.703a1.325 1.325 0 0 0-.125-.473.715.715 0 0 0-.493-.41c-.16-.04-.32-.04-.484 0-.281.07-.445.265-.539.523-.07.18-.086.367-.086.633zm0 0"/><path fill="#28316B" d="M40.09 13.066h-.906c-.028-.43.25-.879.656-1.07.164-.078.34-.121.52-.144a2.769 2.769 0 0 1 1.199.101c.05.016.101.04.148.059.383.144.555.433.574.816.012.14.004.281.004.422.004.328.004.656 0 .98 0 .122-.012.247-.035.364-.082.386-.32.648-.68.812-.25.117-.515.172-.789.192-.265.02-.535.027-.804-.016a1.288 1.288 0 0 1-.243-.059c-.41-.14-.636-.425-.672-.847-.011-.149 0-.301.032-.442.066-.336.281-.562.593-.699.235-.101.485-.144.735-.18.168-.02.34-.039.508-.066.086-.016.175-.047.258-.082.234-.11.167-.457.011-.527a1.02 1.02 0 0 0-.867-.016c-.09.043-.14.121-.18.211-.023.059-.039.117-.062.191zm1.242.711c-.125.04-.234.082-.352.11-.117.031-.238.043-.355.07-.125.031-.25.059-.367.11-.196.09-.281.288-.238.515.035.195.167.313.39.34a.999.999 0 0 0 .606-.145.563.563 0 0 0 .257-.312c.086-.227.059-.457.059-.688zm0 0"/><path fill="#50B4E9" d="M28.086 18.3h-.914c.008-.054.012-.105.02-.155.078-.54.386-.883.93-1.012a2.58 2.58 0 0 1 1.507.082c.457.168.648.441.656.922.004.37 0 .742 0 1.113 0 .152-.004.305-.02.453-.05.442-.288.746-.69.938-.243.109-.497.164-.759.187a3.516 3.516 0 0 1-.859-.015 1.39 1.39 0 0 1-.285-.075.93.93 0 0 1-.61-.804c-.019-.157-.015-.32.024-.477.082-.328.289-.555.605-.691.239-.102.497-.145.758-.18.192-.023.38-.055.57-.086a.406.406 0 0 0 .118-.035c.125-.055.203-.14.199-.281-.008-.145-.066-.258-.207-.305a1.146 1.146 0 0 0-.715-.02.405.405 0 0 0-.262.243c-.023.062-.043.128-.066.199zm1.258.704c-.133.047-.242.086-.356.117-.117.031-.238.04-.355.07-.13.032-.266.063-.387.118-.191.086-.27.277-.23.507.03.188.156.305.37.336a.96.96 0 0 0 .552-.097.607.607 0 0 0 .37-.496c.02-.18.024-.36.036-.555zm0 0"/><path fill="#28316B" d="M38.746 14.207c-.004.16-.047.305-.11.441-.265.57-.718.891-1.359.954a2.679 2.679 0 0 1-.789-.036c-.543-.109-.906-.421-1.113-.918-.148-.359-.176-.734-.148-1.113.02-.246.066-.488.168-.715.246-.547.675-.86 1.273-.953.355-.055.71-.031 1.059.059.59.152.918.527 1.011 1.11l.024.16h-1.024a2.911 2.911 0 0 1-.023-.09c-.082-.29-.25-.434-.547-.47-.39-.046-.688.13-.813.493-.09.262-.101.531-.082.805.012.16.036.316.098.464.117.282.328.426.64.434h.067c.356-.012.535-.148.621-.488.012-.043.02-.086.031-.137h1.016zM35.063 11.852v.949l-.208-.012a1.206 1.206 0 0 0-.457.055.636.636 0 0 0-.43.453 1.85 1.85 0 0 0-.054.527c-.004.524 0 1.047 0 1.57v.137h-.957c-.004-.043-.008-.078-.008-.113v-1.793c0-.27.055-.531.164-.781.227-.508.63-.805 1.168-.934.223-.05.45-.074.676-.066.031 0 .066.004.105.008zm0 0"/></svg>